<?xml version="1.0" encoding="UTF-8" standalone="no"?><!--Uploaded to: SVG Repo, www.svgrepo.com, Generator: SVG Repo Mixer Tools--><svg version="1.1" id="Layer_1" viewBox="0 0 511.997 511.997" xml:space="preserve" sodipodi:docname="quill-feather-svgrepo-com.svg" inkscape:version="1.3.2 (091e20e, 2023-11-25, custom)" xmlns:inkscape="http://www.inkscape.org/namespaces/inkscape" xmlns:sodipodi="http://sodipodi.sourceforge.net/DTD/sodipodi-0.dtd" xmlns="http://www.w3.org/2000/svg" xmlns:svg="http://www.w3.org/2000/svg"><sodipodi:namedview id="namedview3" pagecolor="#ffffff" bordercolor="#000000" borderopacity="0.25" inkscape:showpageshadow="2" inkscape:pageopacity="0.0" inkscape:pagecheckerboard="0" inkscape:deskcolor="#d1d1d1" inkscape:zoom="1.0800014" inkscape:cx="154.62942" inkscape:cy="307.407" inkscape:window-width="1920" inkscape:window-height="991" inkscape:window-x="1671" inkscape:window-y="-9" inkscape:window-maximized="1" inkscape:current-layer="Layer_1"/><path style="fill:#E9E9E9" d="M395.553,236.517l73.202-39.654c45.348-75.708,57.507-145.262,24.578-178.19  c-46.789-46.79-167.493-2.608-274.779,98.607l-23.504,77.87l-40.411-7.932c-74.114,94.799-61.394,231.545-61.394,231.545  s177.865-1.258,288.348-111.741c10.524-10.523,20.49-21.216,29.883-31.99L395.553,236.517z" id="path1"/><path id="rect2" style="fill:#818181" transform="matrix(-0.7071,-0.7071,0.7071,-0.7071,-3.0467,725.3347)" d="m 148.6975,153.00622 16.6935,44.85034 -16.69774,652.83033 z" sodipodi:nodetypes="cccc"/><path id="rect3" style="fill:#595959" transform="matrix(-0.7071,0.7071,-0.7071,-0.7071,525.1234,520.9998)" d="m 319.77408,360.987 45.18392,16.69876 -697.68067,-0.004 z" sodipodi:nodetypes="cccc"/><path style="fill:#D4D4D4" d="M395.553,236.517l73.202-39.654c45.348-75.708,57.507-145.262,24.578-178.19L93.245,418.763  c0,0,177.865-1.258,288.348-111.741c10.524-10.523,20.49-21.216,29.883-31.99L395.553,236.517z" id="path2"/></svg>