<?xml version="1.0" encoding="UTF-8" standalone="no"?><!--Created with Inkscape (http://www.inkscape.org/)--><svg width="362mm" height="100mm" viewBox="0 0 362 100" version="1.1" id="svg1" xml:space="preserve" inkscape:version="1.3.2 (091e20e, 2023-11-25, custom)" sodipodi:docname="logo.svg" inkscape:export-filename="logo.png" inkscape:export-xdpi="260.09601" inkscape:export-ydpi="260.09601" xmlns:inkscape="http://www.inkscape.org/namespaces/inkscape" xmlns:sodipodi="http://sodipodi.sourceforge.net/DTD/sodipodi-0.dtd" xmlns:xlink="http://www.w3.org/1999/xlink" xmlns="http://www.w3.org/2000/svg" xmlns:svg="http://www.w3.org/2000/svg"><sodipodi:namedview id="namedview1" pagecolor="#505050" bordercolor="#eeeeee" borderopacity="1" inkscape:showpageshadow="0" inkscape:pageopacity="0" inkscape:pagecheckerboard="0" inkscape:deskcolor="#505050" inkscape:document-units="mm" inkscape:zoom="2" inkscape:cx="128.5" inkscape:cy="97.5" inkscape:window-width="1920" inkscape:window-height="991" inkscape:window-x="1671" inkscape:window-y="-9" inkscape:window-maximized="1" inkscape:current-layer="svg1" showguides="true"/><defs id="defs1"><inkscape:path-effect effect="mirror_symmetry" start_point="45.999776,0" end_point="45.999776,100.0001" center_point="45.999776,50.00005" id="path-effect7" is_visible="true" lpeversion="1.2" lpesatellites="" mode="free" discard_orig_path="false" fuse_paths="true" oposite_fuse="false" split_items="false" split_open="false" link_styles="false"/><inkscape:path-effect effect="mirror_symmetry" start_point="213.9495,95.387965" end_point="213.9495,120.48982" center_point="213.9495,107.93889" id="path-effect45" is_visible="true" lpeversion="1.2" lpesatellites="" mode="free" discard_orig_path="false" fuse_paths="false" oposite_fuse="false" split_items="false" split_open="false" link_styles="false"/><inkscape:path-effect effect="mirror_symmetry" start_point="96.282812,95.387965" end_point="96.282812,120.48982" center_point="96.282812,107.93889" id="path-effect44" is_visible="true" lpeversion="1.2" lpesatellites="" mode="free" discard_orig_path="false" fuse_paths="false" oposite_fuse="false" split_items="false" split_open="false" link_styles="false"/><inkscape:path-effect effect="mirror_symmetry" start_point="275.171,4.0002727" end_point="275.171,59.000016" center_point="275.171,31.500144" id="path-effect27" is_visible="true" lpeversion="1.2" lpesatellites="" mode="free" discard_orig_path="false" fuse_paths="false" oposite_fuse="false" split_items="false" split_open="false" link_styles="false"/><inkscape:path-effect effect="mirror_symmetry" start_point="128.38863,3.9917204" end_point="128.38863,58.873879" center_point="128.38863,31.4328" id="path-effect23" is_visible="true" lpeversion="1.2" lpesatellites="" mode="free" discard_orig_path="false" fuse_paths="false" oposite_fuse="false" split_items="false" split_open="false" link_styles="false"/><linearGradient id="linearGradient14" inkscape:collect="always"><stop style="stop-color:#8fa2aa;stop-opacity:1" offset="0" id="stop11"/><stop style="stop-color:#b3c8d6;stop-opacity:1" offset="1" id="stop14"/></linearGradient><linearGradient id="linearGradient10" inkscape:collect="always"><stop style="stop-color:#8fa2aa;stop-opacity:1" offset="0" id="stop9"/><stop style="stop-color:#b3c8d6;stop-opacity:1" offset="1" id="stop10"/></linearGradient><inkscape:path-effect effect="mirror_symmetry" start_point="196.43013,3.9263863" end_point="196.43013,57.910267" center_point="196.43013,30.918327" id="path-effect10" is_visible="true" lpeversion="1.2" lpesatellites="" mode="free" discard_orig_path="false" fuse_paths="false" oposite_fuse="false" split_items="false" split_open="false" link_styles="false"/><inkscape:path-effect effect="fillet_chamfer" id="path-effect16" is_visible="true" lpeversion="1" nodesatellites_param="F,0,1,1,0,14.2875,0,1 @ F,0,1,1,0,14.2875,0,1 @ F,0,1,1,0,14.2875,0,1 @ F,0,1,1,0,14.2875,0,1" radius="54" unit="px" method="auto" mode="F" chamfer_steps="1" flexible="false" use_knot_distance="true" apply_no_radius="true" apply_with_radius="true" only_selected="true" hide_knots="false"/><linearGradient id="linearGradient12" inkscape:collect="always"><stop style="stop-color:#8fa2aa;stop-opacity:1" offset="0" id="stop12"/><stop style="stop-color:#b3c8d6;stop-opacity:1" offset="0.78759402" id="stop13"/></linearGradient><inkscape:path-effect effect="mirror_symmetry" start_point="50,0" end_point="50,100" center_point="50,50" id="path-effect12" is_visible="true" lpeversion="1.2" lpesatellites="" mode="vertical" discard_orig_path="false" fuse_paths="false" oposite_fuse="false" split_items="false" split_open="false" link_styles="false"/><inkscape:path-effect effect="mirror_symmetry" start_point="50,0" end_point="50,100" center_point="50,50" id="path-effect11" is_visible="false" lpeversion="1.2" lpesatellites="" mode="vertical" discard_orig_path="false" fuse_paths="false" oposite_fuse="false" split_items="false" split_open="false" link_styles="false"/><inkscape:path-effect effect="mirror_symmetry" start_point="50,0" end_point="50,100" center_point="50,50" id="path-effect9" is_visible="true" lpeversion="1.2" lpesatellites="" mode="vertical" discard_orig_path="false" fuse_paths="false" oposite_fuse="false" split_items="false" split_open="false" link_styles="false"/><inkscape:path-effect effect="fillet_chamfer" id="path-effect4" is_visible="true" lpeversion="1" nodesatellites_param="F,0,0,1,0,10.583333,0,1 @ F,0,0,1,0,0,0,1 @ F,0,0,1,0,0,0,1 @ F,0,1,1,0,3.571875,0,1 @ F,0,0,1,0,0,0,1 @ F,0,0,1,0,0,0,1" radius="13.5" unit="px" method="auto" mode="F" chamfer_steps="1" flexible="false" use_knot_distance="false" apply_no_radius="true" apply_with_radius="true" only_selected="true" hide_knots="false"/><inkscape:path-effect effect="mirror_symmetry" start_point="48.5,-1.5" end_point="48.5,98.5" center_point="48.5,48.5" id="path-effect8" is_visible="true" lpeversion="1.2" lpesatellites="" mode="vertical" discard_orig_path="false" fuse_paths="false" oposite_fuse="false" split_items="false" split_open="false" link_styles="false"/><inkscape:path-effect effect="mirror_symmetry" start_point="-1.5,48.5" end_point="98.5,48.5" center_point="48.5,48.5" id="path-effect9-1" is_visible="true" lpeversion="1.2" lpesatellites="" mode="horizontal" discard_orig_path="false" fuse_paths="false" oposite_fuse="false" split_items="false" split_open="false" link_styles="false"/><linearGradient inkscape:collect="always" xlink:href="#linearGradient12" id="linearGradient13" x1="50" y1="79.000298" x2="50" y2="20.9998" gradientUnits="userSpaceOnUse" gradientTransform="translate(-4)"/><linearGradient inkscape:collect="always" xlink:href="#linearGradient14" id="linearGradient9" x1="182.70744" y1="120.17492" x2="182.70744" y2="75.124321" gradientUnits="userSpaceOnUse" gradientTransform="matrix(1.2551046,0,0,0.79674634,-4,0)"/><linearGradient inkscape:collect="always" xlink:href="#linearGradient7-2" id="linearGradient6" x1="40.194889" y1="100.01585" x2="40.194889" y2="0.33041489" gradientUnits="userSpaceOnUse" gradientTransform="translate(-4)"/><linearGradient id="linearGradient7-2" inkscape:collect="always"><stop style="stop-color:#8fa2aa;stop-opacity:1" offset="0" id="stop6"/><stop style="stop-color:#b3c8d6;stop-opacity:1" offset="1" id="stop7"/></linearGradient><linearGradient inkscape:collect="always" xlink:href="#linearGradient10" id="linearGradient24" gradientUnits="userSpaceOnUse" x1="240.22002" y1="58.848301" x2="240.22002" y2="4.0170803" gradientTransform="matrix(0.99786206,0,0,1.0021425,-1.3541666,0)"/></defs><path id="path23" style="font-size:68.603px;font-family:'Roman Font 7';-inkscape-font-specification:'Roman Font 7, ';display:inline;opacity:1;fill:url(#linearGradient24);fill-rule:evenodd;stroke:currentColor;stroke-width:0;-inkscape-stroke:none" d="M 124.11414,4.0002726 110.1491,53.843742 c -0.70204,2.620047 -1.56675,3.437516 -3.14916,3.437516 v 1.718758 h 10.26863 v -1.718758 c -1.6774,0 -2.6491,-1.038962 -2.19057,-2.75022 l 1.6428,-5.843571 h 14.78669 l 1.64279,5.843571 c 0.47839,1.78538 -0.55576,2.75022 -2.19056,2.75022 v 1.718758 h 10.26862 v -1.718758 c -1.58092,-0.113399 -2.5253,-1.109233 -3.14916,-3.437516 z m 20.94188,0 v 1.7187582 c 1.92699,0 3.42304,1.2574275 3.42304,3.1620809 V 53.843742 c 0,2.103462 -1.34616,3.437516 -3.42304,3.437516 v 1.718758 h 30.80535 v -1.718758 c -2.18019,0 -3.42253,-1.434357 -3.42253,-3.437516 H 153.61312 V 8.8811117 c 0,-1.8132501 1.4175,-3.1620809 3.42305,-3.1620809 V 4.0002726 Z m 34.75757,0 v 1.7187582 c 2.17886,0 3.42253,1.3201376 3.42253,3.1620809 V 53.843742 c 0,2.024772 -1.34592,3.437516 -3.42253,3.437516 v 1.718758 h 15.40267 c 7.96507,0 15.40268,-6.382674 15.40268,-15.468823 0,-6.57328 -3.97646,-11.029417 -7.32462,-13.130981 2.49718,-1.715918 5.6131,-5.037608 5.6131,-10.931633 0,-8.264195 -6.78085,-15.4683064 -15.40268,-15.4683064 z m 32.64038,0 v 1.7187582 c 2.12975,0 3.42305,1.4748935 3.42305,3.4375162 v 34.374646 c 0,8.600046 6.85024,15.468823 15.40268,15.468823 8.77457,0 15.40267,-7.188337 15.40267,-15.468823 V 9.156547 c 0,-1.8157684 1.41086,-3.4375162 3.42305,-3.4375162 V 4.0002726 h -11.98015 v 1.7187582 c 2.2672,0 3.42305,1.4664256 3.42305,3.4375162 v 34.374646 c 0,5.879408 -4.83183,10.312549 -10.26862,10.312549 -5.6693,0 -10.26863,-4.631035 -10.26863,-10.312549 V 9.156547 c 0,-2.0548143 1.41086,-3.4375162 3.42305,-3.4375162 V 4.0002726 Z m 41.60315,0 v 1.7187582 c 2.2009,0 3.42304,1.6197947 3.42304,4.3997312 v 43.72498 c 0,2.064279 -1.34616,3.437516 -3.42304,3.437516 v 1.718758 h 11.98014 v -1.718758 c -2.09138,0 -3.42304,-1.463506 -3.42304,-3.162598 V 28.475264 l 8.55658,30.524752 8.5571,-30.524752 V 54.11866 c 0,1.912834 -1.27224,3.162598 -3.42305,3.162598 v 1.718758 H 288.285 v -1.718758 c -2.09648,0 -3.42305,-1.510352 -3.42305,-3.437516 v -43.72498 c 0,-2.6843882 1.14769,-4.3997312 3.42305,-4.3997312 V 4.0002726 h -11.98015 v 1.7187582 c 2.64379,-0.00738 4.00474,2.2975508 3.42305,4.4684612 l -8.5571,32.725134 -8.55658,-32.725134 C 262.019,7.9661025 263.53709,5.7190308 266.03726,5.7190308 V 4.0002726 Z m 38.1801,0 v 1.7187582 c 2.18856,0 3.42304,1.3779651 3.42304,3.4375162 v 34.374646 c 0,8.608349 6.83646,15.468823 15.40268,15.468823 8.78012,0 15.40268,-7.194909 15.40268,-15.468823 V 9.156547 c 0,-2.00887 1.4119,-3.4375162 3.42253,-3.4375162 V 4.0002726 h -11.97963 v 1.7187582 c 2.20685,0 3.42253,1.4182385 3.42253,3.4375162 v 34.374646 c 0,5.885159 -4.83607,10.312549 -10.26811,10.312549 -5.66931,0 -10.26862,-4.631023 -10.26862,-10.312549 V 9.156547 c 0,-2.1299202 1.41085,-3.4375162 3.42304,-3.4375162 V 4.0002726 Z m 54.35998,0 c -8.24468,0 -15.40267,6.6551064 -15.40267,15.4683064 0,9.539502 8.05114,13.750065 15.40267,13.750065 5.62913,0 10.26863,4.656622 10.26863,10.312549 0,5.879416 -4.83183,10.312549 -10.26863,10.312549 h -11.98014 c 0,1.887808 -1.14984,3.437516 -3.42253,3.437516 v 1.718758 h 15.40267 c 8.78012,0 15.40268,-7.194893 15.40268,-15.468823 0,-8.486303 -6.94684,-15.468823 -15.40268,-15.468823 -6.02049,0 -10.26862,-3.207143 -10.26862,-8.593791 0,-5.450575 4.40462,-10.312032 10.26862,-10.312032 h 11.97964 c 0,-1.8642416 1.18857,-3.4375162 3.42304,-3.4375162 V 4.0002726 Z M 188.37069,9.156547 h 5.13405 c 5.4778,0 10.26862,4.542128 10.26862,10.312032 0,5.591315 -4.53614,8.593791 -10.26862,8.593791 h -5.13405 z m -64.25655,10.931116 5.95571,23.44353 h -11.91141 z m 64.25655,13.130981 h 6.84557 c 5.74634,0 10.26863,4.813468 10.26863,10.312549 0,5.959215 -4.9499,10.312549 -10.26863,10.312549 h -6.84557 z" inkscape:label="text_main" sodipodi:nodetypes="cccccccccccccccccccscccccccccccccsccsscssccccsssccccccssscccccccscccccccccccccsccccccccccccccsssccccccsssccccssssscccssssscccscssscccccccssscc"/><path id="path6" style="display:inline;fill:url(#linearGradient13);stroke-width:0;stroke-dasharray:none" d="M 46,0 C 40.70865,0.0617662 37.579917,0.75080627 34,2 l 6,18.300781 C 41.815576,20.130652 44.274428,20.000022 46,20 c 1.725572,2.2e-5 4.184424,0.130652 6,0.300781 L 58,2 C 54.420083,0.75080627 51.29135,0.0617662 46,0 Z M 33,20 C 24.789502,23.34175 19.337521,30.776258 17,39.5 V 72 c 4.841268,11.492017 12.374078,20.29263 21,28 V 61 C 33.075712,60.084608 28.448991,58.276837 24,55.935547 V 47 c 5.921192,1.709119 11.920143,2.718875 18,3 v 17.740234 c 1.333179,4.10237 2.666823,5.616988 4,7.259766 1.333177,-1.642778 2.666821,-3.157396 4,-7.259766 V 50 c 6.079857,-0.281125 12.078808,-1.290881 18,-3 v 8.935547 C 63.551009,58.276837 58.924288,60.084608 54,61 v 39 C 62.625922,92.29263 70.158732,83.492017 75,72 V 39.5 C 72.662479,30.776258 67.210498,23.34175 59,20 l -2.5,6 C 53.327695,25.324743 49.785695,25.00003 46,25 c -3.785695,3e-5 -7.327695,0.324743 -10.5,1 z"/><path id="path44" style="font-size:31.3777px;font-family:'Roman Font 7';-inkscape-font-specification:'Roman Font 7, ';fill:url(#linearGradient9);fill-rule:evenodd;stroke:currentColor;stroke-width:0;-inkscape-stroke:none" d="m 116.84482,76.000012 -8.0331,18.124995 c -0.55996,0.96988 -0.95088,1.250047 -1.81178,1.250047 v 0.624769 h 5.90765 v -0.624769 c -0.89686,0 -1.4154,-0.421415 -1.26039,-0.999932 l 0.94517,-2.124939 h 8.50542 l 0.94516,2.124939 c 0.21922,0.596851 -0.34435,0.999932 -1.26039,0.999932 v 0.624769 h 5.90765 v -0.624769 c -0.90514,0 -1.41449,-0.387043 -1.81178,-1.250047 z m 10.3017,0 v 0.624769 c 1.22152,0 1.96938,0.593878 1.96938,1.250052 v 12.500009 c 0,3.103526 3.88875,5.624981 8.86097,5.624981 5.07211,0 8.86095,-2.629398 8.86095,-5.624981 V 77.874833 c 0,-0.644802 0.7759,-1.250052 1.96887,-1.250052 v -0.624769 h -6.89157 v 0.624769 c 1.23175,0 1.96887,0.630861 1.96887,1.250052 v 12.500009 c 0,2.143407 -2.78806,3.750165 -5.90712,3.750165 -3.26204,0 -5.90765,-1.684608 -5.90765,-3.750165 V 77.874833 c 0,-0.728005 0.80266,-1.250052 1.96938,-1.250052 v -0.624769 z m 24.15873,0 v 0.624769 c 1.0875,0 1.96887,0.478882 1.96887,1.150317 v 16.349909 c 0,0.682931 -0.66236,1.250047 -1.96887,1.250047 v 0.624769 h 8.86095 c 5.07213,0 8.86096,-2.629398 8.86096,-5.624981 v -8.749853 c 0,-3.091554 -4.00541,-5.624977 -8.86096,-5.624977 z m 19.69078,0 v 0.624769 c 1.18244,0 1.9694,0.519509 1.9694,1.150317 v 16.349909 c 0,0.739421 -0.73981,1.250047 -1.9694,1.250047 v 0.624769 h 6.8921 v -0.624769 c -1.21074,0 -1.96889,-0.408914 -1.96889,-1.150318 V 77.775098 c 0,-0.684154 0.82662,-1.150317 1.96889,-1.150317 v -0.624769 z m 17.72244,0 c -4.75276,0 -8.86096,2.425887 -8.86096,5.624977 v 8.749853 c 0,3.103534 3.88874,5.624981 8.86096,5.624981 5.07211,0 8.86096,-2.62939 8.86096,-5.624981 v -8.749853 c 0,-3.092018 -4.00615,-5.624977 -8.86096,-5.624977 z m 36.01124,0 c -4.16558,0 -7.76439,2.428228 -7.76439,5.624977 v 8.749853 c 0,3.105374 3.41231,5.624981 7.76439,5.624981 h 7.76438 v -0.624769 c -1.20421,0 -1.72495,-0.609311 -1.72495,-1.250039 h -6.03943 c -2.84999,0 -5.17591,-1.678784 -5.17591,-3.750165 v -8.749861 c 0,-1.987137 2.22766,-3.750156 5.17591,-3.750156 h 6.03943 c 0,-0.772275 0.56957,-1.250052 1.72495,-1.250052 v -0.624769 z m 18.59473,0 c -4.75275,0 -8.86095,2.42588 -8.86095,5.624977 v 8.749853 c 0,3.103534 3.88874,5.624981 8.86095,5.624981 5.07211,0 8.86096,-2.629406 8.86096,-5.624981 v -8.749853 c 0,-3.091538 -4.0054,-5.624977 -8.86096,-5.624977 z m 10.82983,0 v 0.624769 c 1.06363,0 1.9694,0.588954 1.9694,1.600418 v 15.899808 c 0,0.729637 -0.75939,1.250047 -1.96939,1.250047 v 0.624769 h 6.89208 v -0.624769 c -1.43601,0 -1.96887,-0.291115 -1.96887,-1.150318 v -9.325008 l 4.92218,11.100095 4.9227,-11.100095 v 9.325008 c 0,0.752925 -0.57338,1.150318 -1.96887,1.150318 v 0.624769 h 6.89208 v -0.624769 c -1.19037,0 -1.96938,-0.539978 -1.96938,-1.250047 V 78.225199 c 0,-0.916983 0.86338,-1.600418 1.96939,-1.600418 v -0.624769 h -6.89208 v 0.624769 c 1.37511,-0.01143 2.24801,0.583459 1.96887,1.625223 l -4.92269,11.900052 -4.92219,-11.900052 c -0.30465,-1.136986 0.76295,-1.625223 1.96888,-1.625223 v -0.624769 z m 22.71851,0 v 0.624769 c 1.25126,0 1.96938,0.504379 1.96938,1.150317 v 16.349909 c 0,0.641516 -0.7594,1.250047 -1.96938,1.250047 v 0.624769 h 6.89208 v -0.624769 c -1.30954,0 -1.96887,-0.428792 -1.96887,-1.150318 v -6.974765 h 3.93827 c 5.07525,0 8.86095,-2.631821 8.86095,-5.624982 0,-3.092017 -4.00615,-5.624977 -8.86095,-5.624977 z m 19.6913,0 v 0.624769 c 1.06578,0 1.9694,0.494209 1.9694,1.150317 v 16.349909 c 0,0.641501 -0.75939,1.250047 -1.9694,1.250047 v 0.624769 h 6.89209 v -0.624769 c -1.20405,0 -1.9694,-0.419558 -1.9694,-1.150318 V 77.775098 c 0,-0.663395 0.77588,-1.150317 1.9694,-1.150317 v -0.624769 z m 9.91929,0 v 0.624769 c 1.14628,0 1.82987,0.595185 1.82987,1.150317 v 16.349909 c 0,0.642943 -0.70748,1.250047 -1.82987,1.250047 v 0.624769 h 16.46928 v -0.624769 c -1.21272,0 -1.83038,-0.390477 -1.83038,-1.250047 h -10.0645 V 77.775098 c 0,-0.693115 0.82168,-1.150317 1.83039,-1.150317 v -0.624769 z m 19.16215,0 v 0.624769 c 0.9187,0 1.76009,0.536489 1.76009,1.100191 v 16.499764 c 0,0.634624 -0.79306,1.150318 -1.76009,1.150318 v 0.624769 h 15.84191 v -0.624769 c -1.07529,0 -1.76009,-0.46514 -1.76009,-1.250047 h -9.68158 v -6.875036 h 7.92097 c 0,-0.699671 0.61362,-1.250055 1.76061,-1.250055 v -0.624769 h -9.68158 v -7.500314 h 9.68158 c 0,-0.720783 0.58559,-1.250052 1.76009,-1.250052 v -0.624769 z m 18.63297,0 v 0.624769 c 1.22059,0 1.96887,0.523856 1.96887,1.150317 v 16.349909 c 0,0.641285 -0.75915,1.250047 -1.96887,1.250047 v 0.624769 h 6.89156 v -0.624769 c -1.33906,0 -1.96887,-0.45773 -1.96887,-1.150318 v -6.974765 h 3.22926 l 4.48965,7.024896 c 0.37905,0.656535 0.008,1.100187 -0.82683,1.100187 v 0.624769 h 5.90714 v -0.624769 c -0.99756,0 -1.71934,-0.462073 -2.20555,-1.250047 l -4.52893,-7.024896 c 3.58626,-0.553771 6.73448,-2.718849 6.73448,-5.475122 0,-3.174377 -4.16247,-5.624977 -8.86096,-5.624977 z m -188.05054,1.874821 h 3.93825 c 3.23151,0 5.90714,1.68892 5.90714,3.750156 v 8.749853 c 0,2.143407 -2.78807,3.750165 -5.90714,3.750165 h -3.93825 z m 32.49052,0 c 3.23148,0 5.90713,1.688915 5.90713,3.750156 v 8.749853 c 0,2.143399 -2.78806,3.750165 -5.90713,3.750165 -3.26204,0 -5.90765,-1.684608 -5.90765,-3.750165 v -8.749853 c 0,-1.982179 2.53503,-3.750156 5.90765,-3.750156 z m 54.60597,0 c 3.2315,0 5.90713,1.688921 5.90713,3.750156 v 8.749853 c 0,2.143399 -2.78806,3.750165 -5.90713,3.750165 -3.26216,0 -5.90766,-1.685102 -5.90766,-3.750165 v -8.749853 c 0,-1.981713 2.53498,-3.750156 5.90766,-3.750156 z m 38.47155,0 h 3.93827 c 3.23697,0 5.90712,1.692941 5.90712,3.750156 0,2.137002 -2.77909,3.750158 -5.90712,3.750158 h -3.93827 z m 67.40519,0 h 3.93826 c 3.15771,0 5.90713,1.656432 5.90713,3.750156 0,2.191714 -2.88487,3.750158 -5.90713,3.750158 h -3.93826 z m -232.35636,3.97495 3.42615,8.525059 h -6.85178 z" inkscape:label="text_sub" sodipodi:nodetypes="cccccccccccccccccccsssccccccssscccccccsccssssccccscccccccccssssssssssscccsssscccsssssssscccscccccccccccccsccccccccccccccsccccccsssccccsccccccccccccscccccccccccccccccccccccccccccccccsccccccccccccccssccssssccsssssssssssssscssscccssscccccc"/><path id="path3" style="fill:url(#linearGradient6);fill-rule:evenodd;stroke:currentColor;stroke-width:0;-inkscape-stroke:none" d="M 27.5,4 C 13.1539,11.441934 6.5,23.507176 6.5,39.5 1.797498,39.5 0,41.110171 0,45.999856 V 65.5 c 0,5.231107 1.561397,6.5 6,6.5 4.438603,0 5.893999,-1.401684 5.999941,-6.5 l 1.18e-4,-26 c 0,-13.561523 5.370545,-23.924273 17.278307,-30.7992203 z m 37,0 c 14.3461,7.441934 21,19.507176 21,35.5 4.702502,0 6.5,1.610171 6.5,6.499856 V 65.5 c 0,5.231107 -1.561397,6.5 -6,6.5 -4.438603,0 -5.893999,-1.401684 -5.999941,-6.5 l -1.18e-4,-26 c 0,-13.561523 -5.370545,-23.924273 -17.278307,-30.7992203 z" sodipodi:nodetypes="cccczcccc" inkscape:label="headphone"/></svg>